<?xml version="1.0" encoding="UTF-8" standalone="no"?>
<!-- Created with Inkscape (http://www.inkscape.org/) -->

<svg
   width="50"
   height="50"
   viewBox="0 0 13.229166 13.229167"
   version="1.1"
   id="svg1"
   xml:space="preserve"
   xmlns="http://www.w3.org/2000/svg"
   xmlns:svg="http://www.w3.org/2000/svg"><defs
     id="defs1" /><g
     id="layer1"
     style="display:inline"><rect
       style="display:none;fill:#ffaaaa;stroke-width:1.40157;stroke-linejoin:bevel;stroke-miterlimit:2.9;stroke-dasharray:3.40157, 3.40157;paint-order:markers fill stroke"
       id="rect1"
       width="50"
       height="50"
       x="0"
       y="0"
       transform="scale(0.26458333)" /><rect
       style="display:none;fill:#ffe6d5;stroke-width:3.40157;stroke-linejoin:bevel;stroke-miterlimit:2.9;stroke-dasharray:3.40157, 3.40157;paint-order:markers fill stroke"
       id="rect2"
       width="41.574802"
       height="41.574802"
       x="3.7795274"
       y="3.7795274"
       transform="matrix(0.25456124,0,0,0.25456124,0.36079552,0.36079552)" /><g
       id="g7"
       transform="matrix(0.1317329,0,0,0.1317329,0.02786588,1.4307358)"
       style="stroke:#000000;stroke-width:0;stroke-miterlimit:3.4;stroke-dasharray:none;stroke-opacity:1">
    <path
         d="M 86.641,22.43 H 13.36 c -1.8516,0 -3.3594,1.5117 -3.3594,3.3594 v 16.5 c 0,1.6602 1.2188,3.0391 2.8086,3.3086 v 1.9414 c 0,2.5703 2,4.6484 4.4688,4.6484 h 65.449 c 2.4609,0 4.4688,-2.0898 4.4688,-4.6484 l 0.0039,-1.9375 c 1.582,-0.26172 2.8008,-1.6406 2.8008,-3.3008 v -16.5 c 0,-1.8594 -1.5117,-3.3711 -3.3594,-3.3711 z m -3.9219,27.82 h -65.438 c -1.3906,0 -2.5195,-1.2109 -2.5195,-2.6992 v -1.8906 h 70.48 v 1.8906 C 85.2377,49.0313 84.1088,50.25 82.7182,50.25 Z m 5.332,-7.9492 c 0,0.78125 -0.62891,1.4102 -1.4102,1.4102 h -73.281 c -0.78125,0 -1.4102,-0.62891 -1.4102,-1.4102 v -16.5 c 0,-0.78125 0.62891,-1.4102 1.4102,-1.4102 h 73.281 c 0.78125,0 1.4102,0.62891 1.4102,1.4102 z"
         id="path1" />
    <path
         d="M 80.32,46.699 H 18.558 c -0.53906,0 -0.98047,0.44141 -0.98047,0.98047 0,0.53906 0.44141,0.98047 0.98047,0.98047 H 80.32 c 0.53906,0 0.98047,-0.44141 0.98047,-0.98047 0,-0.53906 -0.44141,-0.98047 -0.98047,-0.98047 z"
         id="path2" /><path
         d="m 86.102,30.629 c 0,2.6016 -3.9023,2.6016 -3.9023,0 0,-2.5977 3.9023,-2.5977 3.9023,0"
         id="path3" /><path
         d="m 86.102,37.461 c 0,2.5977 -3.9023,2.5977 -3.9023,0 0,-2.6016 3.9023,-2.6016 3.9023,0"
         id="path4" /><path
         d="m 57.23,60.262 c 1.0703,-0.98828 2.2891,-2.1016 1.9688,-3.8906 -0.10156,-0.53125 -0.60156,-0.89062 -1.1289,-0.78906 -0.53125,0.10156 -0.87891,0.60156 -0.78906,1.1289 0.12109,0.66016 -0.32031,1.1484 -1.3711,2.1016 -1.0195,0.92969 -2.2812,2.1016 -2.4492,3.9688 -0.17969,2.0508 1.0586,3.3203 2.1602,4.4492 0.92969,0.94922 1.7305,1.7695 1.6484,2.9609 -0.07813,1.1484 -0.92969,1.9297 -1.8203,2.75 -1.0508,0.96094 -2.2383,2.0508 -1.9688,3.8008 0.07031,0.48047 0.48828,0.82812 0.96094,0.82812 0.05078,0 0.10156,0 0.14844,-0.01172 0.53125,-0.07813 0.89844,-0.57812 0.80859,-1.1094 -0.10938,-0.67969 0.42187,-1.1992 1.3594,-2.0586 1.0312,-0.94141 2.3203,-2.1211 2.4492,-4.0508 0.14844,-2.0586 -1.1016,-3.3398 -2.1992,-4.4609 -1.0586,-1.0898 -1.7109,-1.8086 -1.6094,-2.9102 0.11328,-1.1172 0.95312,-1.8906 1.832,-2.707 z"
         id="path5" /><path
         d="m 50.891,60.262 c 1.0703,-0.98828 2.2891,-2.1016 1.9688,-3.8906 -0.10156,-0.53125 -0.60156,-0.89062 -1.1289,-0.78906 -0.53125,0.10156 -0.87891,0.60156 -0.78906,1.1289 0.12109,0.66016 -0.32031,1.1484 -1.3711,2.1016 -1.0195,0.92969 -2.2812,2.1016 -2.4492,3.9688 -0.17969,2.0508 1.0586,3.3203 2.1602,4.4492 0.92969,0.94922 1.7305,1.7695 1.6484,2.9609 -0.07813,1.1484 -0.92969,1.9297 -1.8203,2.75 -1.0508,0.96094 -2.2383,2.0508 -1.9688,3.8008 0.07031,0.48047 0.48828,0.82812 0.96094,0.82812 0.05078,0 0.10156,0 0.14844,-0.01172 0.53125,-0.07813 0.89844,-0.57812 0.80859,-1.1094 -0.10938,-0.67969 0.42188,-1.1992 1.3594,-2.0586 1.0312,-0.94141 2.3203,-2.1211 2.4492,-4.0508 0.14844,-2.0586 -1.1016,-3.3398 -2.1992,-4.4609 -1.0586,-1.0898 -1.7109,-1.8086 -1.6094,-2.9102 0.10156,-1.1172 0.94141,-1.8906 1.832,-2.707 z"
         id="path6" /><path
         d="m 44.551,60.262 c 1.0703,-0.98828 2.2891,-2.1016 1.9688,-3.8906 -0.10156,-0.53125 -0.60156,-0.89062 -1.1289,-0.78906 -0.53125,0.10156 -0.87891,0.60156 -0.78906,1.1289 0.12109,0.66016 -0.32031,1.1484 -1.3711,2.1016 -1.0195,0.92969 -2.2812,2.1016 -2.4492,3.9688 -0.17969,2.0508 1.0586,3.3203 2.1602,4.4492 0.92969,0.94922 1.7305,1.7695 1.6484,2.9609 -0.07813,1.1484 -0.92969,1.9297 -1.8203,2.75 -1.0508,0.96094 -2.2383,2.0508 -1.9688,3.8008 0.07031,0.48047 0.48828,0.82812 0.96094,0.82812 0.05078,0 0.10156,0 0.14844,-0.01172 0.53125,-0.07813 0.89844,-0.57812 0.80859,-1.1094 -0.10938,-0.67969 0.42188,-1.1992 1.3594,-2.0586 1.0312,-0.94141 2.3203,-2.1211 2.4492,-4.0508 0.14844,-2.0586 -1.1016,-3.3398 -2.1992,-4.4609 -1.0586,-1.0898 -1.7109,-1.8086 -1.6094,-2.9102 0.10156,-1.1172 0.94141,-1.8906 1.832,-2.707 z"
         id="path7" /></g></g></svg>
