<?xml version="1.0" encoding="UTF-8" standalone="no"?>
<!-- Created with Inkscape (http://www.inkscape.org/) -->

<svg
   width="50"
   height="50"
   viewBox="0 0 13.229166 13.229167"
   version="1.1"
   id="svg1"
   xml:space="preserve"
   xmlns="http://www.w3.org/2000/svg"
   xmlns:svg="http://www.w3.org/2000/svg"><defs
     id="defs1" /><g
     id="layer1"><g
       id="g3"
       transform="matrix(0.02347857,0,0,0.02347857,0.60408115,0.99944494)"
       style="stroke:#000000;stroke-width:0;stroke-miterlimit:3.4;stroke-dasharray:none;stroke-opacity:1"><g
         id="g2"
         transform="matrix(0.94922116,0,0,0.94922116,12.997935,-3.8402994)"><path
           d="m 504.5,102.598 c 4.142,0 7.5,-3.358 7.5,-7.5 v -13.05 c 0,-18.124 -14.746,-32.87 -32.87,-32.87 h -92.39 c -3.21,-6.756 -10.083,-11.45 -18.05,-11.45 H 255.173 C 254.851,29.294 250.982,21.446 244.429,16.056 237.614,10.451 228.752,8.21 220.113,9.907 186.99,16.406 157.07,34.425 135.866,60.65 c -5.035,6.23 -7.299,14.04 -6.374,21.99 0.924,7.938 4.913,15.007 11.237,19.909 l 2.946,2.279 -10.294,18.223 c -2.037,3.607 -0.765,8.182 2.841,10.219 3.605,2.035 8.182,0.765 10.219,-2.841 l 15.67,-27.741 C 179.517,71.873 212.317,52.73 247.71,52.73 h 120.98 c 2.751,0 4.99,2.234 4.99,4.98 v 227.66 c 0,2.751 -2.239,4.99 -4.99,4.99 H 238.87 c -15.131,0 -29.151,8.186 -36.591,21.362 l -47.601,84.293 c -2.607,4.622 -6.862,7.951 -11.978,9.374 -5.118,1.423 -10.48,0.769 -15.099,-1.838 l -11.66,-6.59 c -3.606,-2.039 -8.182,-0.768 -10.219,2.839 -2.038,3.606 -0.767,8.181 2.839,10.219 l 9.783,5.529 -11.825,20.935 c -5.376,9.514 -17.493,12.882 -27.012,7.508 L 32.446,417.415 c -4.612,-2.604 -7.934,-6.848 -9.354,-11.951 -1.419,-5.102 -0.767,-10.449 1.838,-15.06 l 11.822,-20.939 41.35,23.354 c 1.166,0.659 2.432,0.971 3.682,0.971 2.617,0 5.159,-1.372 6.537,-3.813 2.037,-3.607 0.765,-8.182 -2.842,-10.219 L 42.254,355.345 c -4.626,-2.608 -7.958,-6.86 -9.38,-11.974 -1.422,-5.114 -0.767,-10.478 1.848,-15.104 l 94.77,-167.81 c 2.037,-3.606 0.764,-8.182 -2.843,-10.219 -3.605,-2.035 -8.181,-0.764 -10.219,2.843 L 21.661,320.889 c -4.584,8.115 -5.734,17.527 -3.238,26.501 1.298,4.667 3.509,8.92 6.466,12.577 l -13.02,23.059 c -4.575,8.098 -5.722,17.494 -3.229,26.457 2.248,8.081 7.219,14.929 14.111,19.552 l -21.78,38.562 c -2.037,3.606 -0.765,8.182 2.842,10.219 1.166,0.658 2.432,0.971 3.682,0.971 2.617,0 5.158,-1.372 6.537,-3.813 l 21.726,-38.464 29.199,16.488 -21.723,38.459 c -2.037,3.606 -0.765,8.182 2.842,10.219 1.166,0.658 2.432,0.971 3.682,0.971 2.617,0 5.158,-1.372 6.537,-3.813 l 22.049,-39.035 c 3.558,1.176 7.222,1.745 10.857,1.745 12.16,0 23.985,-6.368 30.38,-17.686 l 13.026,-23.061 c 1.56,0.215 3.133,0.331 4.712,0.331 3.138,0 6.296,-0.427 9.402,-1.291 8.979,-2.497 16.446,-8.341 21.022,-16.453 l 47.6,-84.291 c 4.784,-8.473 13.799,-13.737 23.529,-13.737 h 129.82 c 7.965,0 14.836,-4.693 18.047,-11.45 h 92.393 c 18.124,0 32.87,-14.746 32.87,-32.87 v -130.94 c 0,-4.142 -3.358,-7.5 -7.5,-7.5 -4.142,0 -7.5,3.358 -7.5,7.5 v 130.94 c 0,9.853 -8.017,17.87 -17.87,17.87 H 388.68 V 64.178 h 90.449 c 9.853,0 17.87,8.016 17.87,17.87 v 13.05 c 10e-4,4.142 3.359,7.5 7.501,7.5 z M 151.197,91.682 149.912,90.688 c -3.106,-2.407 -5.066,-5.881 -5.52,-9.782 -0.456,-3.913 0.66,-7.758 3.139,-10.826 18.993,-23.49 45.795,-39.632 75.472,-45.454 4.223,-0.831 8.558,0.269 11.896,3.015 3.141,2.584 5.012,6.316 5.256,10.342 -36.467,2.443 -69.742,22.461 -88.958,53.699 z"
           id="path1" /><path
           d="m 295.91,89.642 c -5.15,-2.729 -11.254,-1.677 -15.193,2.617 l -69.456,75.713 c -3.379,3.684 -4.262,9.02 -2.25,13.596 2.012,4.576 6.541,7.532 11.54,7.532 h 17.79 l -11.906,50.299 c -1.354,5.72 1.241,11.382 6.457,14.091 1.89,0.982 3.899,1.459 5.879,1.459 3.483,0 6.875,-1.477 9.362,-4.281 l 66.564,-75.039 c 3.337,-3.762 4.129,-8.949 2.066,-13.536 -2.063,-4.587 -6.468,-7.436 -11.497,-7.436 h -15.057 l 12.065,-50.973 c 1.341,-5.67 -1.216,-11.313 -6.364,-14.042 z m 4.031,80.015 -56.72,63.942 10.412,-43.989 c 0.893,-3.774 0.026,-7.683 -2.379,-10.724 -2.406,-3.041 -6.01,-4.786 -9.888,-4.786 h -15.372 l 59.566,-64.932 -10.647,44.98 c -0.894,3.773 -0.026,7.682 2.379,10.724 2.405,3.041 6.009,4.786 9.888,4.786 h 12.761 z"
           id="path2" /></g></g></g></svg>
