<?xml version="1.0" encoding="UTF-8" standalone="no"?>
<!-- Created with Inkscape (http://www.inkscape.org/) -->

<svg
   width="50"
   height="50"
   viewBox="0 0 13.229166 13.229167"
   version="1.1"
   id="svg1"
   xml:space="preserve"
   xmlns="http://www.w3.org/2000/svg"
   xmlns:svg="http://www.w3.org/2000/svg"><defs
     id="defs1" /><g
     id="layer1"><g
       id="g3"
       transform="matrix(0.02347857,0,0,0.02347857,0.60408115,0.99944494)"
       style="stroke:#000000;stroke-width:0;stroke-miterlimit:3.4;stroke-dasharray:none;stroke-opacity:1"><g
         id="g2"
         transform="matrix(11.269142,0,0,11.269142,97.269553,45.489919)"><g
           id="g11"
           style="stroke:#000000;stroke-width:0;stroke-miterlimit:3.4;stroke-dasharray:none;stroke-opacity:1"
           transform="matrix(4.8907031,0,0,4.8907031,-10.370599,-7.2700709)"><path
             d="m 3.227,1.371 c -0.213,0 -0.387,0.174 -0.387,0.387 0,0.213 0.174,0.387 0.387,0.387 0.214,0 0.387,-0.174 0.387,-0.387 0,-0.213 -0.174,-0.387 -0.387,-0.387 z m 0,0.521 c -0.074,0 -0.133,-0.06 -0.133,-0.134 0,-0.074 0.059,-0.134 0.133,-0.134 0.074,0 0.135,0.06 0.135,0.134 0,0.074 -0.061,0.134 -0.135,0.134 z"
             id="path1" /><path
             d="m 5.057,1.371 c -0.213,0 -0.387,0.174 -0.387,0.387 0,0.213 0.174,0.387 0.387,0.387 0.214,0 0.387,-0.174 0.387,-0.387 0,-0.213 -0.173,-0.387 -0.387,-0.387 z m 0,0.521 c -0.072,0 -0.133,-0.06 -0.133,-0.134 0,-0.074 0.061,-0.134 0.133,-0.134 0.074,0 0.135,0.06 0.135,0.134 0,0.074 -0.061,0.134 -0.135,0.134 z"
             id="path2" /><path
             d="m 6.773,2.145 c 0.214,0 0.387,-0.174 0.387,-0.387 0,-0.213 -0.173,-0.387 -0.387,-0.387 -0.214,0 -0.386,0.174 -0.386,0.387 0,0.213 0.173,0.387 0.386,0.387 z m 0,-0.521 c 0.074,0 0.135,0.06 0.135,0.134 0,0.074 -0.06,0.134 -0.135,0.134 -0.075,0 -0.133,-0.06 -0.133,-0.134 0,-0.074 0.059,-0.134 0.133,-0.134 z"
             id="path3" /><path
             d="M 3.227,7.856 C 3.014,7.856 2.84,8.03 2.84,8.243 2.84,8.456 3.014,8.63 3.227,8.63 3.441,8.63 3.614,8.456 3.614,8.243 3.614,8.03 3.44,7.856 3.227,7.856 Z m 0,0.521 c -0.074,0 -0.133,-0.06 -0.133,-0.134 0,-0.074 0.059,-0.135 0.133,-0.135 0.074,0 0.135,0.061 0.135,0.135 0,0.074 -0.061,0.134 -0.135,0.134 z"
             id="path4" /><path
             d="M 5.057,8.63 C 5.271,8.63 5.444,8.456 5.444,8.243 5.444,8.03 5.271,7.856 5.057,7.856 4.844,7.856 4.67,8.03 4.67,8.243 4.67,8.456 4.844,8.63 5.057,8.63 Z m 0,-0.522 c 0.074,0 0.135,0.061 0.135,0.135 0,0.074 -0.061,0.134 -0.135,0.134 -0.072,0 -0.133,-0.06 -0.133,-0.134 0,-0.074 0.06,-0.135 0.133,-0.135 z"
             id="path5" /><path
             d="M 6.773,8.63 C 6.987,8.63 7.16,8.456 7.16,8.243 7.16,8.03 6.987,7.856 6.773,7.856 6.559,7.856 6.387,8.03 6.387,8.243 6.387,8.456 6.56,8.63 6.773,8.63 Z m 0,-0.522 c 0.074,0 0.135,0.061 0.135,0.135 0,0.074 -0.06,0.134 -0.135,0.134 -0.075,0 -0.133,-0.06 -0.133,-0.134 0,-0.074 0.059,-0.135 0.133,-0.135 z"
             id="path6" /><path
             d="M 8.441,4.874 H 8.234 V 2.57 C 8.234,2.501 8.178,2.444 8.109,2.444 H 7.816 V 0.945 C 7.816,0.875 7.76,0.819 7.69,0.819 H 2.31 c -0.069,0 -0.126,0.057 -0.126,0.126 V 2.444 H 1.893 c -0.07,0 -0.127,0.057 -0.127,0.126 V 4.874 H 1.561 C 1.49,4.874 1.435,4.931 1.435,5 v 0.679 c 0,0.07 0.056,0.127 0.126,0.127 h 0.205 v 1.625 c 0,0.07 0.057,0.126 0.127,0.126 h 0.291 v 1.499 c 0,0.069 0.057,0.126 0.126,0.126 h 5.38 c 0.07,0 0.126,-0.057 0.126,-0.126 V 7.557 h 0.293 c 0.069,0 0.125,-0.056 0.125,-0.126 V 5.806 h 0.207 c 0.068,0 0.125,-0.057 0.125,-0.127 V 5 C 8.566,4.931 8.51,4.874 8.441,4.874 Z M 7.564,2.444 H 6.018 V 1.071 h 1.547 v 1.373 z m -3.329,0 V 1.071 h 1.53 V 2.444 Z M 2.437,1.071 H 3.983 V 2.444 H 2.437 Z M 2.018,2.696 H 2.31 7.69 7.982 V 4.874 H 2.018 Z M 2.437,7.557 H 3.983 V 8.929 H 2.437 Z m 3.329,0 V 8.929 H 4.236 V 7.557 Z M 7.564,8.929 H 6.018 V 7.557 H 7.565 V 8.929 Z M 7.982,7.304 H 7.69 2.31 2.018 V 5.806 H 7.983 V 7.304 Z M 8.314,5.553 H 1.687 V 5.126 h 6.628 v 0.427 z"
             id="path7" /><path
             d="M 3.025,6.667 C 3.093,6.667 3.152,6.61 3.152,6.54 V 6.122 C 3.152,6.053 3.093,5.995 3.025,5.995 2.956,5.995 2.9,6.053 2.9,6.122 V 6.54 c 0,0.07 0.056,0.127 0.125,0.127 z"
             id="path8" /><path
             d="M 5,6.667 C 5.07,6.667 5.127,6.61 5.127,6.54 V 6.122 C 5.127,6.053 5.07,5.995 5,5.995 4.932,5.995 4.874,6.053 4.874,6.122 V 6.54 c 0,0.07 0.058,0.127 0.126,0.127 z"
             id="path9" /><path
             d="M 6.977,6.667 C 7.046,6.667 7.102,6.61 7.102,6.54 V 6.122 C 7.102,6.053 7.046,5.995 6.977,5.995 6.907,5.995 6.85,6.053 6.85,6.122 V 6.54 c 0,0.07 0.056,0.127 0.127,0.127 z"
             id="path10" /><path
             d="M 5.322,2.919 H 4.726 C 4.689,2.919 4.654,2.935 4.629,2.963 4.605,2.991 4.595,3.028 4.602,3.065 L 4.665,3.449 H 4.408 C 4.362,3.449 4.319,3.475 4.297,3.518 4.275,3.561 4.279,3.61 4.308,3.649 L 4.998,4.6 c 0.025,0.033 0.063,0.051 0.103,0.051 0.002,0 0.003,0 0.003,0 C 5.185,4.657 5.233,4.596 5.233,4.526 5.233,4.508 5.23,4.494 5.224,4.479 L 5.184,4.022 H 5.429 C 5.465,4.022 5.5,4.006 5.525,3.979 5.547,3.952 5.559,3.916 5.555,3.879 L 5.447,3.029 C 5.439,2.966 5.386,2.919 5.322,2.919 Z M 5.045,3.77 C 5.011,3.77 4.977,3.785 4.952,3.81 4.928,3.837 4.917,3.872 4.921,3.907 L 4.936,4.084 4.657,3.702 H 4.811 C 4.848,3.702 4.882,3.684 4.908,3.657 4.932,3.63 4.941,3.592 4.936,3.556 L 4.874,3.171 H 5.211 L 5.286,3.77 Z"
             id="path11" /></g></g></g></g></svg>
