<?xml version="1.0" encoding="UTF-8" standalone="no"?>
<!-- Created with Inkscape (http://www.inkscape.org/) -->

<svg
   width="50"
   height="50"
   viewBox="0 0 13.229166 13.229167"
   version="1.1"
   id="svg1"
   xml:space="preserve"
   xmlns="http://www.w3.org/2000/svg"
   xmlns:svg="http://www.w3.org/2000/svg"><defs
     id="defs1"><clipPath
       clipPathUnits="userSpaceOnUse"
       id="clipPath1466"><path
         d="M 0,512 H 512 V 0 H 0 Z"
         id="path1464" /></clipPath></defs><g
     id="layer1"><g
       id="g3"
       transform="matrix(0.02347857,0,0,0.02347857,0.60408115,0.99944494)"
       style="stroke:#000000;stroke-width:0;stroke-miterlimit:3.4;stroke-dasharray:none;stroke-opacity:1"><g
         id="g2"
         transform="matrix(11.269142,0,0,11.269142,97.269553,45.489919)"><g
           id="g1462"
           clip-path="url(#clipPath1466)"
           transform="matrix(0.08230383,0,0,-0.08230383,-6.9844182,38.255666)"><g
             id="g1468"
             transform="translate(7.5,389.7999)"><path
               d="m 0,0 v -337.45 c 0,-24.77 20.08,-44.85 44.85,-44.85 h 407.3 c 24.77,0 44.85,20.08 44.85,44.85 L 497,0 Z"
               style="fill:none;stroke:#000000;stroke-width:15;stroke-linecap:round;stroke-linejoin:round;stroke-miterlimit:10;stroke-dasharray:none;stroke-opacity:1"
               id="path1470" /></g><g
             id="g1472"
             transform="translate(7.5,389.7999)"><path
               d="m 0,0 v 69.85 c 0,24.77 20.08,44.85 44.85,44.85 h 407.3 C 476.92,114.7 497,94.62 497,69.85 V 0 Z"
               style="fill:none;stroke:#000000;stroke-width:15;stroke-linecap:round;stroke-linejoin:round;stroke-miterlimit:10;stroke-dasharray:none;stroke-opacity:1"
               id="path1474" /></g><g
             id="g1476"
             transform="translate(442.7952,471.513)"><path
               d="m 0,0 h -164.09 c -6.465,0 -11.705,-5.24 -11.705,-11.705 v -25.316 c 0,-6.465 5.24,-11.705 11.705,-11.705 H 0 c 6.464,0 11.705,5.24 11.705,11.705 v 25.316 C 11.705,-5.24 6.464,0 0,0 Z"
               style="fill:none;stroke:#000000;stroke-width:15;stroke-linecap:round;stroke-linejoin:round;stroke-miterlimit:10;stroke-dasharray:none;stroke-opacity:1"
               id="path1478" /></g><g
             id="g1480"
             transform="translate(127.6633,447.1499)"><path
               d="m 0,0 c 0,-12.351 -10.012,-22.363 -22.363,-22.363 -12.351,0 -22.363,10.012 -22.363,22.363 0,12.351 10.012,22.363 22.363,22.363 C -10.012,22.363 0,12.351 0,0 Z"
               style="fill:none;stroke:#000000;stroke-width:15;stroke-linecap:round;stroke-linejoin:round;stroke-miterlimit:10;stroke-dasharray:none;stroke-opacity:1"
               id="path1482" /></g><g
             id="g1484"
             transform="translate(204.5299,447.1499)"><path
               d="m 0,0 c 0,-12.351 -10.012,-22.363 -22.363,-22.363 -12.351,0 -22.363,10.012 -22.363,22.363 0,12.351 10.012,22.363 22.363,22.363 C -10.012,22.363 0,12.351 0,0 Z"
               style="fill:none;stroke:#000000;stroke-width:15;stroke-linecap:round;stroke-linejoin:round;stroke-miterlimit:10;stroke-dasharray:none;stroke-opacity:1"
               id="path1486" /></g><g
             id="g1488"
             transform="translate(358.5718,222.1939)"><path
               d="m 0,0 c -10.286,6.01 -22.234,9.472 -34.983,9.472 -38.365,0 -69.578,-31.212 -69.578,-69.577 0,-38.365 31.213,-69.577 69.578,-69.577 38.365,0 69.578,31.212 69.578,69.577 0,15.021 -4.801,28.933 -12.926,40.317"
               style="fill:none;stroke:#000000;stroke-width:15;stroke-linecap:round;stroke-linejoin:round;stroke-miterlimit:10;stroke-dasharray:none;stroke-opacity:1"
               id="path1490" /></g><g
             id="g1492"
             transform="translate(57.5,389.7999)"><path
               d="m 0,0 v -65.42 l 24.81,12.52 c 15.61,7.87 34.02,7.87 49.63,0 7.8,-3.94 16.3,-5.91 24.81,-5.91 8.51,0 17.01,1.97 24.81,5.91 7.8,3.94 16.31,5.9 24.82,5.9 8.5,0 17,-1.96 24.81,-5.9 7.8,-3.94 16.31,-5.91 24.81,-5.91 8.5,0 17.01,1.97 24.81,5.91 7.81,3.94 16.31,5.9 24.81,5.9 8.51,0 17.02,-1.96 24.82,-5.9 7.8,-3.94 16.3,-5.91 24.81,-5.91 8.51,0 17.01,1.97 24.81,5.91 7.8,3.94 16.31,5.9 24.82,5.9 8.5,0 17,-1.96 24.81,-5.9 L 397,-65.42 V 0 Z"
               style="fill:none;stroke:#000000;stroke-width:15;stroke-linecap:round;stroke-linejoin:round;stroke-miterlimit:10;stroke-dasharray:none;stroke-opacity:1"
               id="path1494" /></g><g
             id="g1496"
             transform="translate(429.6899,336.9)"><path
               d="m 0,0 c -7.81,3.94 -16.31,5.9 -24.81,5.9 -8.51,0 -17.02,-1.96 -24.82,-5.9 -7.8,-3.94 -16.3,-5.91 -24.81,-5.91 -8.51,0 -17.01,1.97 -24.81,5.91 -7.8,3.94 -16.31,5.9 -24.82,5.9 -8.5,0 -17,-1.96 -24.81,-5.9 -7.8,-3.94 -16.31,-5.91 -24.81,-5.91 -8.5,0 -17.01,1.97 -24.81,5.91 -7.81,3.94 -16.31,5.9 -24.81,5.9 -8.51,0 -17.02,-1.96 -24.82,-5.9 -7.8,-3.94 -16.3,-5.91 -24.81,-5.91 -8.51,0 -17.01,1.97 -24.81,5.91 -15.61,7.87 -34.02,7.87 -49.63,0 l -24.81,-12.52 V -279.4 h 397 v 266.88 z"
               style="fill:none;stroke:#000000;stroke-width:15;stroke-linecap:round;stroke-linejoin:round;stroke-miterlimit:10;stroke-dasharray:none;stroke-opacity:1"
               id="path1498" /></g><g
             id="g1500"
             transform="translate(323.5889,266.6666)"><path
               d="m 0,0 c -30.816,0 -58.516,-13.331 -77.655,-34.538 -0.759,-20.647 -10.414,-39.017 -25.261,-51.381 -1.09,-6.055 -1.662,-12.29 -1.662,-18.659 0,-57.756 46.822,-104.577 104.578,-104.577 57.757,0 104.578,46.821 104.578,104.577 C 104.578,-46.821 57.757,0 0,0 Z"
               style="fill:none;stroke:#000000;stroke-width:15;stroke-linecap:round;stroke-linejoin:round;stroke-miterlimit:10;stroke-dasharray:none;stroke-opacity:1"
               id="path1502" /></g><g
             id="g1504"
             transform="translate(132.4341,179.4649)"><path
               d="m 0,0 c 11.937,-9.365 26.968,-14.965 43.316,-14.965 38.798,0 70.25,31.452 70.25,70.25 v 49.461 c 0,7.615 -6.173,13.789 -13.789,13.789 H -13.145 c -7.616,0 -13.789,-6.174 -13.789,-13.789 V 55.285 c 0,-11.696 2.874,-22.715 7.931,-32.415"
               style="fill:none;stroke:#000000;stroke-width:15;stroke-linecap:round;stroke-linejoin:round;stroke-miterlimit:10;stroke-dasharray:none;stroke-opacity:1"
               id="path1506" /></g><g
             id="g1508"
             transform="translate(191,98.0001)"><path
               d="m 0,0 v 0 h -30.5 v 0 c 0,0 -28.667,-7.667 -28,-40.5 H 28 C 28.667,-7.667 0,0 0,0 Z"
               style="fill:none;stroke:#000000;stroke-width:15;stroke-linecap:round;stroke-linejoin:round;stroke-miterlimit:10;stroke-dasharray:none;stroke-opacity:1"
               id="path1510" /></g><g
             id="g1512"
             transform="translate(175.75,164.5001)"><path
               d="M 0,0 V 0 C -5.239,0 -10.338,0.591 -15.25,1.679 V -66.5 h 30.5 V 1.679 C 10.338,0.591 5.239,0 0,0 Z"
               style="fill:none;stroke:#000000;stroke-width:15;stroke-linecap:round;stroke-linejoin:round;stroke-miterlimit:10;stroke-dasharray:none;stroke-opacity:1"
               id="path1514" /></g></g></g></g></g></svg>
