<?xml version="1.0" encoding="UTF-8" standalone="no"?>
<!-- Created with Inkscape (http://www.inkscape.org/) -->

<svg
   width="50"
   height="50"
   viewBox="0 0 13.229166 13.229167"
   version="1.1"
   id="svg1"
   xml:space="preserve"
   xmlns="http://www.w3.org/2000/svg"
   xmlns:svg="http://www.w3.org/2000/svg"><defs
     id="defs1" /><g
     id="layer1"
     style="display:inline"><rect
       style="display:none;fill:#ffaaaa;stroke-width:3.40157;stroke-linejoin:bevel;stroke-miterlimit:2.9;stroke-dasharray:3.40157, 3.40157;paint-order:markers fill stroke"
       id="rect1"
       width="50"
       height="50"
       x="0"
       y="0"
       transform="scale(0.26458333)" /><rect
       style="display:none;fill:#ffe6d5;stroke-width:3.40157;stroke-linejoin:bevel;stroke-miterlimit:2.9;stroke-dasharray:3.40157, 3.40157;paint-order:markers fill stroke"
       id="rect2"
       width="41.574802"
       height="41.574802"
       x="3.7795274"
       y="3.7795274"
       transform="matrix(0.25456124,0,0,0.25456124,0.36079552,0.36079552)" /><path
       d="m 430,236 c -6,0 -10,-8 -6,-12 13,-14 13,-35 0,-48 -6,-7 4,-17 11,-11 18,19 18,50 0,68 -2,2 -3,3 -5,3 z m -49,117 h -22 c 0,14 0,24 -7,37 4,0 7,3 7,7 v 61 c 0,4 -3,7 -7,7 H 200 c -4,0 -7,-3 -7,-7 v -61 c 0,-3 2,-6 5,-7 -7,-13 -8,-23 -8,-37 h -49 c -11,0 -20,-9 -20,-21 V 68 c 0,-12 9,-21 20,-21 h 240 c 12,0 21,9 21,21 v 264 c 0,11 -9,21 -21,21 z m -35,-61 c 0,-5 -5,-4 -8,-4 -9,0 3,22 -11,22 -17,0 2,-34 -16,-34 -17,0 1,34 -16,34 -4,0 -7,-3 -7,-7 v -33 c 0,-11 -18,-11 -18,0 v 33 c 0,10 -15,10 -15,0 V 200 c 0,-11 -17,-11 -17,0 v 140 c 0,10 -15,10 -15,0 v -35 l -20,-34 c -7,-12 -19,-3 -26,1 l 27,47 c 2,2 1,36 1,41 0,11 3,21 10,30 h 121 c 7,-9 10,-20 10,-31 0,-22 0,-45 0,-67 z m 13,46 h 22 c 4,0 7,-3 7,-6 V 68 c 0,-4 -3,-7 -7,-7 H 141 c -3,0 -6,3 -6,7 v 264 c 0,3 3,6 6,6 h 49 v -14 l -30,-50 c -1,-4 0,-8 3,-10 l 17,-10 c 13,-7 29,-2 36,10 l 7,13 v -39 c -20,-10 -33,-31 -33,-54 -1,-32 25,-58 58,-58 33,0 59,26 59,59 0,24 -15,45 -37,55 v 9 c 9,-5 26,0 30,15 12,-5 25,0 31,11 12,-3 28,1 28,17 z M 270,224 c 40,-23 23,-83 -22,-83 -43,0 -61,56 -25,81 v -22 c 0,-12 11,-23 24,-23 12,0 23,11 23,23 z m -62,180 v 47 h 136 v -47 c -45,0 -91,0 -136,0 z M 38,282 c -2,0 -4,0 -6,-2 -43,-44 -43,-116 0,-160 7,-7 18,3 11,10 -38,39 -38,102 0,140 4,5 1,12 -5,12 z m 22,-23 c -2,0 -4,-1 -6,-2 -30,-32 -30,-83 0,-114 7,-7 18,3 11,10 -25,26 -25,68 0,94 4,4 2,12 -5,12 z m 22,-23 c -13,0 -32,-43 -5,-70 7,-7 17,4 10,11 -12,13 -12,34 0,48 4,3 3,11 -5,11 z m 392,46 c -6,0 -10,-7 -5,-12 38,-39 38,-102 0,-140 -7,-7 4,-18 11,-11 43,44 43,116 0,161 -2,2 -4,2 -6,2 z m -22,-23 c -6,0 -9,-8 -5,-12 25,-26 25,-69 0,-94 -7,-7 3,-18 11,-10 30,31 30,82 0,114 -2,1 -4,2 -6,2 z"
       id="path1-6"
       transform="matrix(0.02223375,0,0,0.02223375,0.92274333,1.45191)"
       style="clip-rule:evenodd;fill-rule:evenodd;stroke:#000000;stroke-width:0;stroke-miterlimit:3.4;stroke-dasharray:none;stroke-opacity:1;image-rendering:optimizeQuality;shape-rendering:geometricPrecision;text-rendering:geometricPrecision" /></g></svg>
