<?xml version="1.0" encoding="UTF-8" standalone="no"?>
<!-- Created with Inkscape (http://www.inkscape.org/) -->

<svg
   width="50"
   height="50"
   viewBox="0 0 13.229166 13.229167"
   version="1.1"
   id="svg1"
   xml:space="preserve"
   xmlns="http://www.w3.org/2000/svg"
   xmlns:svg="http://www.w3.org/2000/svg"><defs
     id="defs1" /><g
     id="layer1"
     style="display:inline"><rect
       style="display:none;fill:#ffaaaa;stroke-width:3.40157;stroke-linejoin:bevel;stroke-miterlimit:2.9;stroke-dasharray:3.40157, 3.40157;paint-order:markers fill stroke"
       id="rect1"
       width="50"
       height="50"
       x="0"
       y="0"
       transform="scale(0.26458333)" /><rect
       style="display:none;fill:#ffe6d5;stroke-width:3.40157;stroke-linejoin:bevel;stroke-miterlimit:2.9;stroke-dasharray:3.40157, 3.40157;paint-order:markers fill stroke"
       id="rect2"
       width="41.574802"
       height="41.574802"
       x="3.7795274"
       y="3.7795274"
       transform="matrix(0.25456124,0,0,0.25456124,0.36079552,0.36079552)" /><g
       id="g9"
       transform="matrix(0.08977086,0,0,0.08977086,0.86915852,0.86924829)"
       style="stroke:#000000;stroke-width:0;stroke-miterlimit:3.4;stroke-dasharray:none;stroke-opacity:1"><path
         d="M 101.884,4.557 H 26.116 a 6.758,6.758 0 0 0 -6.75,6.75 v 103.008 a 1.75,1.75 0 0 0 1.75,1.75 h 3.636 v 5.628 a 1.75,1.75 0 0 0 1.75,1.75 h 8.069 a 1.75,1.75 0 0 0 1.75,-1.75 v -5.628 h 55.358 v 5.628 a 1.75,1.75 0 0 0 1.75,1.75 h 8.071 a 1.75,1.75 0 0 0 1.75,-1.75 v -5.628 h 3.636 a 1.75,1.75 0 0 0 1.75,-1.75 V 11.307 a 6.758,6.758 0 0 0 -6.752,-6.75 z m 3.25,6.75 V 26.432 H 65.75 V 8.057 h 36.134 a 3.254,3.254 0 0 1 3.25,3.25 z M 26.116,8.057 H 62.25 V 26.432 H 22.866 V 11.307 a 3.254,3.254 0 0 1 3.25,-3.25 z m 6.7,111.886 h -4.564 v -3.878 h 4.569 z m 66.927,0 h -4.564 v -3.878 h 4.569 z M 22.861,112.565 V 29.932 h 82.268 v 82.633 z"
         id="path1" /><path
         d="M 64,41.833 A 29.416,29.416 0 1 0 93.415,71.248 29.448,29.448 0 0 0 64,41.833 Z m 0,55.331 A 25.916,25.916 0 1 1 89.915,71.248 25.945,25.945 0 0 1 64,97.164 Z"
         id="path2" /><path
         d="M 64,50.392 A 20.857,20.857 0 1 0 84.856,71.248 20.88,20.88 0 0 0 64,50.392 Z m 0,38.213 A 17.357,17.357 0 1 1 81.356,71.248 17.376,17.376 0 0 1 64,88.605 Z"
         id="path3" /><path
         d="m 93.334,23.357 a 6.113,6.113 0 1 0 -6.113,-6.112 6.119,6.119 0 0 0 6.113,6.112 z m 0,-8.726 a 2.613,2.613 0 1 1 -2.613,2.614 2.616,2.616 0 0 1 2.613,-2.614 z"
         id="path4" /><path
         d="m 77.55,23.357 a 6.113,6.113 0 1 0 -6.113,-6.112 6.119,6.119 0 0 0 6.113,6.112 z m 0,-8.726 a 2.613,2.613 0 1 1 -2.613,2.614 2.617,2.617 0 0 1 2.613,-2.614 z"
         id="path5" /><path
         d="m 30.3,22.6 h 24.512 a 1.75,1.75 0 0 0 1.75,-1.75 v -7.213 a 1.75,1.75 0 0 0 -1.75,-1.75 H 30.3 a 1.75,1.75 0 0 0 -1.75,1.75 v 7.215 A 1.75,1.75 0 0 0 30.3,22.6 Z m 1.75,-7.215 H 53.062 V 19.1 H 32.054 Z"
         id="path6" /><path
         d="m 65.508,64.351 a 1.751,1.751 0 0 0 -3.016,-1.778 9.423,9.423 0 0 0 0,9.564 5.916,5.916 0 0 1 0,6.009 1.7502846,1.7502846 0 1 0 3.016,1.777 9.422,9.422 0 0 0 0,-9.563 5.916,5.916 0 0 1 0,-6.009 z"
         id="path7" /><path
         d="m 72.967,64.351 a 1.751,1.751 0 1 0 -3.016,-1.778 9.423,9.423 0 0 0 0,9.564 5.916,5.916 0 0 1 0,6.009 1.7502846,1.7502846 0 1 0 3.016,1.777 9.422,9.422 0 0 0 0,-9.563 5.916,5.916 0 0 1 0,-6.009 z"
         id="path8" /><path
         d="m 58.049,64.351 a 1.751,1.751 0 0 0 -3.016,-1.778 9.423,9.423 0 0 0 0,9.564 5.916,5.916 0 0 1 0,6.009 1.7502846,1.7502846 0 1 0 3.016,1.777 9.422,9.422 0 0 0 0,-9.563 5.916,5.916 0 0 1 0,-6.009 z"
         id="path9" /></g></g></svg>
