<?xml version="1.0" encoding="UTF-8" standalone="no"?>
<!-- Created with Inkscape (http://www.inkscape.org/) -->

<svg
   width="50"
   height="50"
   viewBox="0 0 13.229166 13.229167"
   version="1.1"
   id="svg1"
   xml:space="preserve"
   xmlns="http://www.w3.org/2000/svg"
   xmlns:svg="http://www.w3.org/2000/svg"><defs
     id="defs1" /><g
     id="layer1"
     style="display:inline"><rect
       style="display:none;fill:#ffaaaa;stroke-width:3.40157;stroke-linejoin:bevel;stroke-miterlimit:2.9;stroke-dasharray:3.40157, 3.40157;paint-order:markers fill stroke"
       id="rect1"
       width="50"
       height="50"
       x="0"
       y="0"
       transform="scale(0.26458333)" /><rect
       style="display:none;fill:#ffe6d5;stroke-width:3.40157;stroke-linejoin:bevel;stroke-miterlimit:2.9;stroke-dasharray:3.40157, 3.40157;paint-order:markers fill stroke"
       id="rect2"
       width="41.574802"
       height="41.574802"
       x="3.7795274"
       y="3.7795274"
       transform="matrix(0.25456124,0,0,0.25456124,0.36079552,0.36079552)" /><g
       id="g8"
       transform="matrix(0.02067884,0,0,0.02067884,1.3208003,1.1284153)"
       style="display:inline;stroke:#000000;stroke-width:0;stroke-miterlimit:3.4;stroke-dasharray:none;stroke-opacity:1"><path
         d="M 508.031,289.089 320,179.404 V 15.999 c 0,-4.418 -3.582,-8 -8,-8 H 200 c -4.418,0 -8,3.582 -8,8 V 179.404 L 3.969,289.089 C 1.512,290.522 0,293.154 0,295.999 v 64 c 0,4.418 3.582,8 8,8 h 496 c 4.418,0 8,-3.582 8,-8 v -64 c 0,-2.845 -1.512,-5.477 -3.969,-6.91 z m -305.868,-97.09 h 107.674 l 164.571,96 H 37.592 Z m 5.837,-168 h 96 v 152 h -96 z m -192,328 v -48 h 480 v 48 z"
         id="path1-3" /><path
         d="m 188.688,436.889 c -3.869,-3.87 -4.825,-9.758 -2.378,-14.652 l 9.33,-18.66 c 1.976,-3.952 0.374,-8.757 -3.577,-10.733 -3.952,-1.976 -8.758,-0.375 -10.733,3.578 l -9.33,18.66 c -5.532,11.063 -3.372,24.374 5.374,33.121 l 10.907,10.907 c 3.869,3.87 4.825,9.758 2.378,14.652 l -9.329,18.66 c -1.976,3.952 -0.374,8.757 3.578,10.733 1.148,0.574 2.368,0.846 3.571,0.846 2.935,0 5.76,-1.621 7.161,-4.424 l 9.329,-18.66 c 5.532,-11.063 3.372,-24.374 -5.374,-33.121 z"
         id="path2-0" /><path
         d="m 259.719,436.889 c -3.869,-3.87 -4.825,-9.758 -2.378,-14.652 l 9.329,-18.66 c 1.976,-3.952 0.374,-8.757 -3.578,-10.733 -3.949,-1.975 -8.757,-0.375 -10.732,3.578 l -9.329,18.66 c -5.532,11.063 -3.372,24.374 5.374,33.121 l 10.907,10.907 c 3.869,3.87 4.825,9.758 2.378,14.652 l -9.33,18.66 c -1.976,3.952 -0.374,8.757 3.577,10.733 1.149,0.574 2.369,0.847 3.572,0.847 2.935,0 5.76,-1.621 7.161,-4.424 l 9.33,-18.66 c 5.532,-11.063 3.372,-24.374 -5.374,-33.121 z"
         id="path3-3" /><path
         d="m 331.719,436.889 c -3.869,-3.87 -4.825,-9.758 -2.378,-14.652 l 9.329,-18.66 c 1.976,-3.952 0.374,-8.757 -3.578,-10.733 -3.949,-1.975 -8.757,-0.375 -10.732,3.578 l -9.329,18.66 c -5.532,11.063 -3.372,24.374 5.374,33.121 l 10.907,10.907 c 3.869,3.87 4.825,9.758 2.378,14.652 l -9.33,18.66 c -1.976,3.952 -0.374,8.757 3.577,10.733 1.149,0.574 2.369,0.847 3.572,0.847 2.935,0 5.76,-1.621 7.161,-4.424 l 9.33,-18.66 c 5.532,-11.063 3.372,-24.374 -5.374,-33.121 z"
         id="path4-3" /><path
         d="m 208,311.999 c -4.418,0 -8,3.582 -8,8 v 16 c 0,4.418 3.582,8 8,8 4.418,0 8,-3.582 8,-8 v -16 c 0,-4.418 -3.582,-8 -8,-8 z"
         id="path5-4" /><path
         d="m 240,311.999 c -4.418,0 -8,3.582 -8,8 v 16 c 0,4.418 3.582,8 8,8 4.418,0 8,-3.582 8,-8 v -16 c 0,-4.418 -3.582,-8 -8,-8 z"
         id="path6" /><path
         d="m 272,311.999 c -4.418,0 -8,3.582 -8,8 v 16 c 0,4.418 3.582,8 8,8 4.418,0 8,-3.582 8,-8 v -16 c 0,-4.418 -3.582,-8 -8,-8 z"
         id="path7" /><path
         d="m 304,311.999 c -4.418,0 -8,3.582 -8,8 v 16 c 0,4.418 3.582,8 8,8 4.418,0 8,-3.582 8,-8 v -16 c 0,-4.418 -3.582,-8 -8,-8 z"
         id="path8" /></g></g></svg>
