<?xml version="1.0" encoding="UTF-8" standalone="no"?>
<!-- Created with Inkscape (http://www.inkscape.org/) -->

<svg
   width="50"
   height="50"
   viewBox="0 0 13.229166 13.229167"
   version="1.1"
   id="svg1"
   xml:space="preserve"
   xmlns="http://www.w3.org/2000/svg"
   xmlns:svg="http://www.w3.org/2000/svg"><defs
     id="defs1" /><g
     id="layer1"
     style="display:inline"><rect
       style="display:none;fill:#ffaaaa;stroke-width:3.40157;stroke-linejoin:bevel;stroke-miterlimit:2.9;stroke-dasharray:3.40157, 3.40157;paint-order:markers fill stroke"
       id="rect1"
       width="50"
       height="50"
       x="0"
       y="0"
       transform="scale(0.26458333)" /><rect
       style="display:none;fill:#ffe6d5;stroke-width:3.40157;stroke-linejoin:bevel;stroke-miterlimit:2.9;stroke-dasharray:3.40157, 3.40157;paint-order:markers fill stroke"
       id="rect2"
       width="41.574802"
       height="41.574802"
       x="3.7795274"
       y="3.7795274"
       transform="matrix(0.25456124,0,0,0.25456124,0.36079552,0.36079552)" /><g
       id="g9"
       transform="matrix(0.17073733,0,0,0.17073733,1.1509888,1.7900839)"
       style="stroke:#000000;stroke-width:0;stroke-miterlimit:3.4;stroke-dasharray:none;stroke-opacity:1">
	<path
   d="M 58,1 H 6 C 3.243,1 1,3.243 1,6 v 32 c 0,2.757 2.243,5 5,5 h 27.525 l 1.338,10.029 c 0.119,0.901 0.483,1.753 1.051,2.463 l 2.429,3.036 C 38.767,59.06 39,59.725 39,60.403 V 63 h 16 v -2.789 c 0,-0.595 0.174,-1.17 0.504,-1.664 L 58.16,54.563 C 58.71,53.739 59,52.78 59,51.789 v -8.89 C 61.279,42.434 63,40.415 63,38 V 6 C 63,3.243 60.757,1 58,1 Z m -1,50.789 c 0,0.595 -0.174,1.17 -0.504,1.664 L 53.84,57.437 C 53.29,58.261 53,59.22 53,60.211 V 61 H 41 v -0.597 c 0,-1.13 -0.39,-2.24 -1.096,-3.124 L 37.475,54.243 C 37.134,53.817 36.916,53.306 36.844,52.765 L 35.007,38.993 C 35.003,38.954 35,38.915 35,38.876 35,38.393 35.393,38 35.875,38 h 0.517 c 0.435,0 0.798,0.312 0.864,0.742 l 1.452,9.433 C 38.96,49.812 40.344,51 42,51 h 1 V 25 c 0,-0.551 0.448,-1 1,-1 0.552,0 1,0.449 1,1 v 10 8 4 h 2 v -4 -8 c 0,-0.551 0.448,-1 1,-1 0.552,0 1,0.449 1,1 v 2 10 h 2 V 37 c 0,-0.551 0.448,-1 1,-1 0.552,0 1,0.449 1,1 v 3 5 2 h 2 v -2 -5 c 0,-0.551 0.448,-1 1,-1 0.552,0 1,0.449 1,1 z M 44,22 c -1.654,0 -3,1.346 -3,3 v 1.998 C 39.766,26.07 39,24.599 39,23 c 0,-2.757 2.243,-5 5,-5 2.757,0 5,2.243 5,5 0,1.599 -0.766,3.069 -2,3.997 V 25 c 0,-1.654 -1.346,-3 -3,-3 z m 17,16 c 0,1.302 -0.839,2.402 -2,2.816 V 40 c 0,-1.654 -1.346,-3 -3,-3 -0.352,0 -0.686,0.072 -1,0.184 V 37 c 0,-1.654 -1.346,-3 -3,-3 -0.395,0 -0.77,0.081 -1.116,0.22 C 50.539,32.945 49.383,32 48,32 c -0.352,0 -0.686,0.072 -1,0.184 v -2.879 c 2.413,-1.15 4,-3.59 4,-6.305 0,-3.86 -3.141,-7 -7,-7 -3.859,0 -7,3.14 -7,7 0,2.715 1.587,5.154 4,6.305 v 19.246 c -0.163,-0.186 -0.275,-0.418 -0.315,-0.68 L 39.233,38.438 C 39.016,37.025 37.82,36 36.392,36 H 35.875 C 34.29,36 33,37.29 33,38.876 c 0,0.126 0.009,0.252 0.025,0.379 L 33.258,41 H 6 C 4.346,41 3,39.654 3,38 V 6 C 3,4.346 4.346,3 6,3 h 52 c 1.654,0 3,1.346 3,3 z"
   id="path1" />
	<path
   d="M 25.39,21.214 22,20.246 V 19.98 c 1.246,-0.939 2,-2.416 2,-3.979 V 14.209 C 24,11.521 21.999,9.243 19.445,9.021 18.042,8.897 16.651,9.371 15.622,10.315 14.591,11.259 14,12.603 14,14 v 2 c 0,1.563 0.754,3.041 2,3.979 v 0.266 l -3.39,0.969 C 10.484,21.821 9,23.789 9,26 v 1 h 20 v -1 c 0,-2.211 -1.484,-4.179 -3.61,-4.786 z M 11.175,25 c 0.318,-0.885 1.047,-1.595 1.984,-1.863 L 18,21.754 V 18.87 L 17.503,18.581 C 16.562,18.033 16,17.068 16,16 v -2 c 0,-0.838 0.354,-1.645 0.974,-2.212 0.626,-0.574 1.446,-0.846 2.298,-0.776 1.53,0.133 2.728,1.536 2.728,3.196 V 16 c 0,1.068 -0.562,2.033 -1.503,2.581 L 20,18.87 v 2.884 l 4.841,1.383 c 0.938,0.268 1.666,0.978 1.984,1.863 z"
   id="path2" />
	<path
   d="M 5,31 H 33 V 5 H 5 Z M 7,7 H 31 V 29 H 7 Z"
   id="path3" />
	<path
   d="m 8,33 c -1.654,0 -3,1.346 -3,3 0,1.654 1.346,3 3,3 1.654,0 3,-1.346 3,-3 0,-1.654 -1.346,-3 -3,-3 z m 0,4 c -0.552,0 -1,-0.449 -1,-1 0,-0.551 0.448,-1 1,-1 0.552,0 1,0.449 1,1 0,0.551 -0.448,1 -1,1 z"
   id="path4" />
	<path
   d="m 16,33 c -1.654,0 -3,1.346 -3,3 0,1.654 1.346,3 3,3 1.654,0 3,-1.346 3,-3 0,-1.654 -1.346,-3 -3,-3 z m 0,4 c -0.552,0 -1,-0.449 -1,-1 0,-0.551 0.448,-1 1,-1 0.552,0 1,0.449 1,1 0,0.551 -0.448,1 -1,1 z"
   id="path5" />
	<path
   d="m 24,33 c -1.654,0 -3,1.346 -3,3 0,1.654 1.346,3 3,3 1.654,0 3,-1.346 3,-3 0,-1.654 -1.346,-3 -3,-3 z m 0,4 c -0.552,0 -1,-0.449 -1,-1 0,-0.551 0.448,-1 1,-1 0.552,0 1,0.449 1,1 0,0.551 -0.448,1 -1,1 z"
   id="path6" />
	<path
   d="m 56,5 c -1.654,0 -3,1.346 -3,3 0,1.654 1.346,3 3,3 1.654,0 3,-1.346 3,-3 0,-1.654 -1.346,-3 -3,-3 z m 0,4 c -0.552,0 -1,-0.449 -1,-1 0,-0.551 0.448,-1 1,-1 0.552,0 1,0.449 1,1 0,0.551 -0.448,1 -1,1 z"
   id="path7" />
	<path
   d="m 48,5 c -1.654,0 -3,1.346 -3,3 0,1.654 1.346,3 3,3 1.654,0 3,-1.346 3,-3 0,-1.654 -1.346,-3 -3,-3 z m 0,4 c -0.552,0 -1,-0.449 -1,-1 0,-0.551 0.448,-1 1,-1 0.552,0 1,0.449 1,1 0,0.551 -0.448,1 -1,1 z"
   id="path8" />
	<path
   d="m 40,5 c -1.654,0 -3,1.346 -3,3 0,1.654 1.346,3 3,3 1.654,0 3,-1.346 3,-3 0,-1.654 -1.346,-3 -3,-3 z m 0,4 c -0.552,0 -1,-0.449 -1,-1 0,-0.551 0.448,-1 1,-1 0.552,0 1,0.449 1,1 0,0.551 -0.448,1 -1,1 z"
   id="path9" />
</g></g></svg>
