<?xml version="1.0" encoding="UTF-8" standalone="no"?>
<!-- Created with Inkscape (http://www.inkscape.org/) -->

<svg
   width="50"
   height="50"
   viewBox="0 0 13.229166 13.229167"
   version="1.1"
   id="svg1"
   xml:space="preserve"
   sodipodi:docname="lightning-protection.svg"
   inkscape:version="1.3.2 (091e20e, 2023-11-25)"
   xmlns:inkscape="http://www.inkscape.org/namespaces/inkscape"
   xmlns:sodipodi="http://sodipodi.sourceforge.net/DTD/sodipodi-0.dtd"
   xmlns="http://www.w3.org/2000/svg"
   xmlns:svg="http://www.w3.org/2000/svg"><sodipodi:namedview
     id="namedview1"
     pagecolor="#ffffff"
     bordercolor="#000000"
     borderopacity="0.25"
     inkscape:showpageshadow="2"
     inkscape:pageopacity="0.0"
     inkscape:pagecheckerboard="0"
     inkscape:deskcolor="#d1d1d1"
     inkscape:zoom="8.0392636"
     inkscape:cx="11.817003"
     inkscape:cy="24.069369"
     inkscape:window-width="1512"
     inkscape:window-height="916"
     inkscape:window-x="0"
     inkscape:window-y="38"
     inkscape:window-maximized="1"
     inkscape:current-layer="g1" /><defs
     id="defs1" /><g
     id="g1"
     transform="matrix(0.26458333,0,0,0.26458333,0,0.83185809)"><circle
       cx="25"
       cy="25"
       r="2.5"
       stroke="#000000"
       fill="none"
       stroke-width="1"
       id="circle1"
       transform="matrix(1.2377504,0,0,1.2377504,-5.94376,-10.357878)" /><line
       x1="25"
       y1="27.5"
       x2="25"
       y2="35"
       stroke="#000000"
       stroke-width="1"
       stroke-linecap="round"
       id="line1"
       transform="matrix(1.2377504,0,0,1.402784,-5.94376,-14.169138)" /><line
       x1="25"
       y1="39.5"
       x2="25"
       y2="37"
       stroke="#000000"
       stroke-width="1"
       stroke-linecap="round"
       id="line2"
       transform="matrix(1.2377504,0,0,1.2377504,-5.94376,-8.4414694)" /><line
       x1="20"
       y1="39.5"
       x2="30"
       y2="39.5"
       stroke="#000000"
       stroke-width="1"
       stroke-linecap="round"
       id="line3"
       transform="matrix(1.2377504,0,0,1.2377504,-5.94376,-8.4414694)" /><line
       x1="22.5"
       y1="41"
       x2="27.5"
       y2="41"
       stroke="#000000"
       stroke-width="1"
       stroke-linecap="round"
       id="line4"
       transform="matrix(1.2377504,0,0,1.2377504,-5.94376,-8.4414694)" /><line
       x1="23.5"
       y1="42.5"
       x2="26.5"
       y2="42.5"
       stroke="#000000"
       stroke-width="1"
       stroke-linecap="round"
       id="line5"
       transform="matrix(1.2377504,0,0,1.2377504,-5.94376,-8.4414694)" /><polygon
       points="34,19 33,12 38,10 31,1 31.1,1.7 32,8 28,10 31.82,15.73 "
       style="fill:none;stroke:#000000;stroke-width:1.5;stroke-linecap:round;stroke-linejoin:round"
       id="polygon7"
       transform="matrix(0.55910763,-0.05876458,-0.08029715,-0.76397641,7.9712959,16.409995)" /><polygon
       points="31.82,15.73 34,19 33,12 38,10 31,1 31.1,1.7 32,8 28,10 "
       style="fill:none;stroke:#000000;stroke-width:1.5;stroke-linecap:round;stroke-linejoin:round"
       id="polygon7-8"
       transform="matrix(0.36136705,-0.4306605,-0.58846355,-0.49377955,9.0371104,30.389374)" /><polygon
       points="32,8 28,10 31.82,15.73 34,19 33,12 38,10 31,1 31.1,1.7 "
       style="fill:none;stroke:#000000;stroke-width:1.5;stroke-linecap:round;stroke-linejoin:round"
       id="polygon7-5"
       transform="matrix(0.36136708,0.43066049,-0.58846355,0.49377955,29.243284,-7.4791314)" /></g></svg>
