<?xml version="1.0" encoding="UTF-8" standalone="no"?>
<!-- Created with Inkscape (http://www.inkscape.org/) -->

<svg
   width="50"
   height="50"
   viewBox="0 0 13.229166 13.229167"
   version="1.1"
   id="svg1"
   xml:space="preserve"
   xmlns="http://www.w3.org/2000/svg"
   xmlns:svg="http://www.w3.org/2000/svg"><defs
     id="defs1"><clipPath
       clipPathUnits="userSpaceOnUse"
       id="clipPath2189"><path
         d="M 0,512 H 512 V 0 H 0 Z"
         id="path2187" /></clipPath></defs><g
     id="layer1"
     style="display:inline"><rect
       style="display:none;fill:#ffaaaa;stroke-width:3.40157;stroke-linejoin:bevel;stroke-miterlimit:2.9;stroke-dasharray:3.40157, 3.40157;paint-order:markers fill stroke"
       id="rect1"
       width="50"
       height="50"
       x="0"
       y="0"
       transform="scale(0.26458333)" /><rect
       style="display:none;fill:#ffe6d5;stroke-width:3.40157;stroke-linejoin:bevel;stroke-miterlimit:2.9;stroke-dasharray:3.40157, 3.40157;paint-order:markers fill stroke"
       id="rect2"
       width="41.574802"
       height="41.574802"
       x="3.7795274"
       y="3.7795274"
       transform="matrix(0.25456124,0,0,0.25456124,0.36079552,0.36079552)" /><g
       id="g2185"
       clip-path="url(#clipPath2189)"
       transform="matrix(0.02082928,0,0,-0.02082928,1.2822897,11.946884)"
       style="stroke:#000000;stroke-width:0;stroke-miterlimit:3.4;stroke-dasharray:none;stroke-opacity:1"><g
         id="g2191"
         transform="translate(488.4678,440.3711)"><path
           d="m 0,0 h -464.936 c -8.854,0 -16.032,-7.178 -16.032,-16.032 v -304.614 c 0,-8.854 7.178,-16.032 16.032,-16.032 H 0 c 8.854,0 16.032,7.178 16.032,16.032 V -16.032 C 16.032,-7.178 8.854,0 0,0 Z"
           style="fill:none;stroke:#000000;stroke-width:15;stroke-linecap:round;stroke-linejoin:round;stroke-miterlimit:10;stroke-dasharray:none;stroke-opacity:1"
           id="path2193" /></g><g
         id="g2195"
         transform="translate(392.2744,392.2729)"><path
           d="M 0,0 V -288.58"
           style="fill:none;stroke:#000000;stroke-width:15;stroke-linecap:round;stroke-linejoin:round;stroke-miterlimit:10;stroke-dasharray:none;stroke-opacity:1"
           id="path2197" /></g><g
         id="g2199"
         transform="translate(392.2744,440.3711)"><path
           d="M 0,0 V -16.034"
           style="fill:none;stroke:#000000;stroke-width:15;stroke-linecap:round;stroke-linejoin:round;stroke-miterlimit:10;stroke-dasharray:none;stroke-opacity:1"
           id="path2201" /></g><g
         id="g2203"
         transform="translate(71.6289,231.9556)"><path
           d="m 0,0 v 128.254 c 0,8.854 7.178,16.032 16.032,16.032 h 224.452 c 8.854,0 16.032,-7.178 16.032,-16.032 V -48.101 c 0,-8.854 -7.178,-16.032 -16.032,-16.032 H 16.032 C 7.178,-64.133 0,-56.955 0,-48.101 v 16.03"
           style="fill:none;stroke:#000000;stroke-width:15;stroke-linecap:round;stroke-linejoin:round;stroke-miterlimit:10;stroke-dasharray:none;stroke-opacity:1"
           id="path2205" /></g><g
         id="g2207"
         transform="translate(392.2744,376.2417)"><path
           d="m 0,0 h -16.033 c -8.854,0 -16.032,-7.178 -16.032,-16.032 v -176.355 c 0,-8.854 7.178,-16.032 16.032,-16.032 H 0"
           style="fill:none;stroke:#000000;stroke-width:15;stroke-linecap:round;stroke-linejoin:round;stroke-miterlimit:10;stroke-dasharray:none;stroke-opacity:1"
           id="path2209" /></g><g
         id="g2211"
         transform="translate(472.4355,191.8711)"><path
           d="m 0,0 c 0,-13.282 -10.767,-24.048 -24.048,-24.048 -13.282,0 -24.049,10.766 -24.049,24.048 0,13.281 10.767,24.048 24.049,24.048 C -10.767,24.048 0,13.281 0,0 Z"
           style="fill:none;stroke:#000000;stroke-width:15;stroke-linecap:round;stroke-linejoin:round;stroke-miterlimit:10;stroke-dasharray:none;stroke-opacity:1"
           id="path2213" /></g><g
         id="g2215"
         transform="translate(424.3389,247.9839)"><path
           d="M 0,0 H 8.016"
           style="fill:none;stroke:#000000;stroke-width:15;stroke-linecap:round;stroke-linejoin:round;stroke-miterlimit:10;stroke-dasharray:none;stroke-opacity:1"
           id="path2217" /></g><g
         id="g2219"
         transform="translate(464.4194,247.9839)"><path
           d="M 0,0 H 8.016"
           style="fill:none;stroke:#000000;stroke-width:15;stroke-linecap:round;stroke-linejoin:round;stroke-miterlimit:10;stroke-dasharray:none;stroke-opacity:1"
           id="path2221" /></g><g
         id="g2223"
         transform="translate(424.3389,280.0483)"><path
           d="M 0,0 H 8.016"
           style="fill:none;stroke:#000000;stroke-width:15;stroke-linecap:round;stroke-linejoin:round;stroke-miterlimit:10;stroke-dasharray:none;stroke-opacity:1"
           id="path2225" /></g><g
         id="g2227"
         transform="translate(464.4194,280.0483)"><path
           d="M 0,0 H 8.016"
           style="fill:none;stroke:#000000;stroke-width:15;stroke-linecap:round;stroke-linejoin:round;stroke-miterlimit:10;stroke-dasharray:none;stroke-opacity:1"
           id="path2229" /></g><g
         id="g2231"
         transform="translate(424.3389,312.1128)"><path
           d="M 0,0 H 8.016"
           style="fill:none;stroke:#000000;stroke-width:15;stroke-linecap:round;stroke-linejoin:round;stroke-miterlimit:10;stroke-dasharray:none;stroke-opacity:1"
           id="path2233" /></g><g
         id="g2235"
         transform="translate(464.4194,312.1128)"><path
           d="M 0,0 H 8.016"
           style="fill:none;stroke:#000000;stroke-width:15;stroke-linecap:round;stroke-linejoin:round;stroke-miterlimit:10;stroke-dasharray:none;stroke-opacity:1"
           id="path2237" /></g><g
         id="g2239"
         transform="translate(464.4194,392.2744)"><path
           d="m 0,0 h -32.064 c -4.428,0 -8.017,-3.589 -8.017,-8.016 v -24.049 c 0,-4.427 3.589,-8.016 8.017,-8.016 H 0 c 4.427,0 8.016,3.589 8.016,8.016 V -8.016 C 8.016,-3.589 4.427,0 0,0 Z"
           style="fill:none;stroke:#000000;stroke-width:15;stroke-linecap:round;stroke-linejoin:round;stroke-miterlimit:10;stroke-dasharray:none;stroke-opacity:1"
           id="path2241" /></g><g
         id="g2243"
         transform="translate(71.6289,103.6934)"><path
           d="m 0,0 -13.816,-27.633 c -1.358,-2.716 -4.134,-4.431 -7.17,-4.431 h -19.095 c -4.427,0 -8.016,3.588 -8.016,8.016 V 0"
           style="fill:none;stroke:#000000;stroke-width:15;stroke-linecap:round;stroke-linejoin:round;stroke-miterlimit:10;stroke-dasharray:none;stroke-opacity:1"
           id="path2245" /></g><g
         id="g2247"
         transform="translate(440.3711,103.6934)"><path
           d="m 0,0 13.816,-27.633 c 1.358,-2.716 4.134,-4.431 7.17,-4.431 h 19.095 c 4.427,0 8.016,3.588 8.016,8.016 V 0"
           style="fill:none;stroke:#000000;stroke-width:15;stroke-linecap:round;stroke-linejoin:round;stroke-miterlimit:10;stroke-dasharray:none;stroke-opacity:1"
           id="path2249" /></g><g
         id="g2251"
         transform="translate(191.8711,215.9194)"><path
           d="M 0,0 C 0,18.696 16.032,18.696 16.032,37.392 16.032,56.1 0,56.1 0,74.809 0,93.517 16.032,93.517 16.032,112.226"
           style="fill:none;stroke:#000000;stroke-width:15;stroke-linecap:round;stroke-linejoin:round;stroke-miterlimit:10;stroke-dasharray:none;stroke-opacity:1"
           id="path2253" /></g><g
         id="g2255"
         transform="translate(239.9678,215.9194)"><path
           d="M 0,0 C 0,18.696 16.032,18.696 16.032,37.392 16.032,56.1 0,56.1 0,74.809 0,93.517 16.032,93.517 16.032,112.226"
           style="fill:none;stroke:#000000;stroke-width:15;stroke-linecap:round;stroke-linejoin:round;stroke-miterlimit:10;stroke-dasharray:none;stroke-opacity:1"
           id="path2257" /></g><g
         id="g2259"
         transform="translate(143.7744,215.9194)"><path
           d="M 0,0 C 0,18.696 16.032,18.696 16.032,37.392 16.032,56.1 0,56.1 0,74.809 0,93.517 16.032,93.517 16.032,112.226"
           style="fill:none;stroke:#000000;stroke-width:15;stroke-linecap:round;stroke-linejoin:round;stroke-miterlimit:10;stroke-dasharray:none;stroke-opacity:1"
           id="path2261" /></g></g></g></svg>
