<?xml version="1.0" encoding="UTF-8" standalone="no"?>
<!-- Created with Inkscape (http://www.inkscape.org/) -->

<svg
   width="50"
   height="50"
   viewBox="0 0 13.229166 13.229167"
   version="1.1"
   id="svg1"
   xml:space="preserve"
   xmlns="http://www.w3.org/2000/svg"
   xmlns:svg="http://www.w3.org/2000/svg"><defs
     id="defs1" /><g
     id="layer1"
     style="display:inline"><rect
       style="display:none;fill:#ffaaaa;stroke-width:3.40157;stroke-linejoin:bevel;stroke-miterlimit:2.9;stroke-dasharray:3.40157, 3.40157;paint-order:markers fill stroke"
       id="rect1"
       width="50"
       height="50"
       x="0"
       y="0"
       transform="scale(0.26458333)" /><rect
       style="display:none;fill:#ffe6d5;stroke-width:3.40157;stroke-linejoin:bevel;stroke-miterlimit:2.9;stroke-dasharray:3.40157, 3.40157;paint-order:markers fill stroke"
       id="rect2"
       width="41.574802"
       height="41.574802"
       x="3.7795274"
       y="3.7795274"
       transform="matrix(0.25456124,0,0,0.25456124,0.36079552,0.36079552)" /><path
       id="path4-8"
       d="m 470.5957,81.279297 c -34.42185,0 -68.8442,13.105917 -95.05664,39.318363 -2.70313,2.70306 -5.25726,5.49852 -7.68164,8.36718 H 66.929688 C 49.460515,128.96484 35,142.77793 35,159.90234 V 528.5 c 0,17.12541 14.460795,30.9375 31.929688,30.9375 H 544.59961 c 17.46786,0 31.92578,-13.81209 31.92578,-30.9375 V 298.42383 C 617.7767,245.71509 614.1573,169.10261 565.65234,120.59766 539.43991,94.385214 505.01757,81.279297 470.5957,81.279297 Z m 0,9.941406 c 31.84315,0 63.68753,12.148457 87.98633,36.447267 48.59763,48.59761 48.59763,127.37504 0,175.97265 -48.59764,48.59884 -127.37502,48.59884 -175.97265,0 -48.59884,-48.59763 -48.59884,-127.37501 0,-175.97265 24.29881,-24.29882 56.14319,-36.447267 87.98632,-36.447267 z m 3.38868,36.431637 c -2.21558,0.002 -4.43625,0.088 -6.65821,0.25391 -14.22052,1.062 -28.49752,5.44001 -41.89648,12.62109 -2.95807,1.58529 -3.54566,5.57679 -1.16992,7.94727 l 113.62304,113.33984 c 2.37566,2.36928 6.36448,1.77297 7.94336,-1.1875 19.02488,-35.70013 18.21698,-77.56949 -12.20898,-107.99414 -17.26397,-17.26397 -38.21561,-24.99941 -59.63281,-24.98047 z m 0.97265,9.77149 c 1.82524,0.011 3.64341,0.0903 5.45508,0.24023 16.57381,1.37186 32.45969,8.36399 46.13477,22.03906 25.58538,25.58428 27.54307,58.86256 13.31835,89.96485 L 436.40625,146.46484 c 12.7099,-5.84764 25.77411,-9.11825 38.55078,-9.04101 z M 66.929688,138.96484 H 360.16992 c -36.42358,52.38339 -31.3016,125.07651 15.36914,171.7461 52.42486,52.42616 137.68843,52.42616 190.11328,0 0.2958,-0.29579 0.5806,-0.59862 0.87305,-0.89649 V 528.5 c 0,3.51174 -0.90384,6.82824 -2.50391,9.74414 L 431.53906,371.51758 c -6.06276,-7.63018 -17.60213,-8.15726 -24.33594,-1.11133 l -70.88671,74.15234 c -3.03379,3.17442 -6.36697,2.98987 -9.03516,-0.49804 L 234.03516,322.16016 c -2.93889,-3.84178 -7.27031,-6.17129 -11.7461,-6.16407 -4.47579,0.007 -8.79843,2.34983 -11.72461,6.20118 L 47.072266,537.41406 C 45.742453,534.70477 45,531.68258 45,528.5 V 159.90234 c 0,-11.5056 9.67386,-20.9375 21.929688,-20.9375 z m 332.369142,29.89649 c -1.85035,0.0155 -3.54085,1.05164 -4.39453,2.69336 -18.47748,35.55774 -17.51368,76.94246 12.66601,107.12304 4.4e-4,4.3e-4 0.004,-4.3e-4 0.004,0 v 0.002 c 29.91704,29.91615 70.77586,31.04237 106.17578,13.14843 3.02414,-1.53043 3.68183,-5.5625 1.30078,-7.9746 L 402.90039,170.34766 c -1.06046,-1.06046 -2.23667,-1.48633 -3.60156,-1.48633 z m 1.62109,13.71094 101.89258,103.12109 c -30.72709,13.24025 -63.07533,11.00975 -88.16992,-14.08594 -25.33111,-25.33001 -27.43622,-58.13123 -13.72266,-89.03515 z m -256.51367,6.1875 c -28.91232,0 -52.457031,23.54665 -52.457031,52.45898 0,28.91233 23.544711,52.45508 52.457031,52.45508 28.91233,0 52.45898,-23.54275 52.45898,-52.45508 0,-28.91233 -23.54665,-52.45898 -52.45898,-52.45898 z m 0,10 c 23.50793,0 42.45898,18.95105 42.45898,42.45898 0,23.50793 -18.95105,42.45508 -42.45898,42.45508 -23.50792,0 -42.45703,-18.94715 -42.45703,-42.45508 0,-23.50793 18.94911,-42.45898 42.45703,-42.45898 z m 77.90039,127.23632 c 1.14265,-10e-4 2.4335,0.46881 3.78711,2.23829 l 93.24414,121.90234 c 5.91681,7.73459 17.47832,8.37066 24.20703,1.33008 l 70.88672,-74.15235 c 3.0287,-3.16907 6.55011,-3.00654 9.27734,0.42578 l 133.44922,167.9375 c -3.54145,2.36217 -7.85563,3.75977 -12.55859,3.75977 H 66.929688 c -5.002077,0 -9.559271,-1.58875 -13.21875,-4.23047 L 218.52539,328.24805 c 1.34758,-1.77365 2.63861,-2.25012 3.78125,-2.25196 z"
       transform="matrix(0.01974865,0,0,0.01974865,0.57717005,0.28793745)"
       text-indent="0"
       text-align="start"
       text-decoration-line="none"
       text-decoration-style="solid"
       text-decoration-color="#000000"
       text-transform="none"
       block-progression="tb"
       white-space="normal"
       isolation="auto"
       mix-blend-mode="normal"
       solid-color="#000000"
       solid-opacity="1"
       style="stroke:#000000;stroke-width:0;stroke-miterlimit:3.4;stroke-dasharray:none;stroke-opacity:1" /></g></svg>
