<?xml version="1.0" encoding="UTF-8" standalone="no"?>
<!-- Created with Inkscape (http://www.inkscape.org/) -->

<svg
   width="50"
   height="50"
   viewBox="0 0 13.229166 13.229167"
   version="1.1"
   id="svg1"
   xml:space="preserve"
   xmlns="http://www.w3.org/2000/svg"
   xmlns:svg="http://www.w3.org/2000/svg"><defs
     id="defs1" /><g
     id="layer1"
     style="display:inline"><rect
       style="display:none;fill:#ffaaaa;stroke-width:3.40157;stroke-linejoin:bevel;stroke-miterlimit:2.9;stroke-dasharray:3.40157, 3.40157;paint-order:markers fill stroke"
       id="rect1"
       width="50"
       height="50"
       x="0"
       y="0"
       transform="scale(0.26458333)" /><rect
       style="display:none;fill:#ffe6d5;stroke-width:3.40157;stroke-linejoin:bevel;stroke-miterlimit:2.9;stroke-dasharray:3.40157, 3.40157;paint-order:markers fill stroke"
       id="rect2"
       width="41.574802"
       height="41.574802"
       x="3.7795274"
       y="3.7795274"
       transform="matrix(0.25456124,0,0,0.25456124,0.36079552,0.36079552)" /><g
       id="g28"
       transform="matrix(0.01978559,0,0,0.01978559,2.2291667,2.2291667)"
       style="stroke:#000000;stroke-width:0;stroke-miterlimit:3.4;stroke-dasharray:none;stroke-opacity:1"><path
         d="M 221.647,0 C 99.433,0 0,99.433 0,221.647 c 0,122.214 99.433,220.647 221.647,221.647 122.214,0 221.647,-99.433 221.647,-221.647 C 443.294,99.433 343.861,0 221.647,0 Z m 0,415.588 c -106.941,0 -193.941,-87 -193.941,-193.941 0,-106.941 87,-193.941 193.941,-193.941 106.941,0 193.941,87 193.941,193.941 0,106.941 -87,193.941 -193.941,193.941 z"
         id="path1" /><path
         d="M 235.5,83.118 H 207.794 V 227.383 L 294.97,314.559 314.559,294.97 235.5,215.911 Z"
         id="path2" /></g></g></svg>
