<?xml version="1.0" encoding="UTF-8" standalone="no"?>
<!-- Created with Inkscape (http://www.inkscape.org/) -->

<svg
   width="50"
   height="50"
   viewBox="0 0 13.229166 13.229167"
   version="1.1"
   id="svg1"
   xml:space="preserve"
   xmlns="http://www.w3.org/2000/svg"
   xmlns:svg="http://www.w3.org/2000/svg"><defs
     id="defs1" /><g
     id="layer1"
     style="display:inline"><rect
       style="display:none;fill:#ffaaaa;stroke-width:3.40157;stroke-linejoin:bevel;stroke-miterlimit:2.9;stroke-dasharray:3.40157, 3.40157;paint-order:markers fill stroke"
       id="rect1"
       width="50"
       height="50"
       x="0"
       y="0"
       transform="scale(0.26458333)" /><rect
       style="display:none;fill:#ffe6d5;stroke-width:3.40157;stroke-linejoin:bevel;stroke-miterlimit:2.9;stroke-dasharray:3.40157, 3.40157;paint-order:markers fill stroke"
       id="rect2"
       width="41.574802"
       height="41.574802"
       x="3.7795274"
       y="3.7795274"
       transform="matrix(0.25456124,0,0,0.25456124,0.36079552,0.36079552)" /><g
       id="outline"
       transform="matrix(0.02182812,0,0,0.02182812,1.0265846,1.0265846)"><path
         d="m 80,448 h 352 a 8,8 0 0 0 8,-8 V 152 a 8,8 0 0 0 -8,-8 H 80 a 8,8 0 0 0 -8,8 v 288 a 8,8 0 0 0 8,8 z m 48,-288 h 256 a 8,8 0 0 1 0,16 H 128 a 8,8 0 0 1 0,-16 z m -40,0 h 17.376 A 23.992,23.992 0 0 0 128,192 h 256 a 23.992,23.992 0 0 0 22.624,-32 H 424 V 400 H 368 V 366.624 A 24,24 0 0 0 360,320 H 347.867 A 71.853,71.853 0 0 0 288,288 h -64 a 72.286,72.286 0 0 0 -59.872,32 H 152 a 24,24 0 0 0 -8,46.624 V 400 H 88 Z m 64,192 a 8,8 0 0 1 0,-16 h 208 a 8,8 0 0 1 0,16 z m 200,16 v 32 H 160 V 368 Z M 184.836,320 A 56.2,56.2 0 0 1 224,304 h 64 a 55.838,55.838 0 0 1 39.167,16 z M 88,416 h 336 v 16 H 88 Z"
         id="path1-3" /><path
         d="M 468,16 H 44 A 28.032,28.032 0 0 0 16,44 v 424 a 28.032,28.032 0 0 0 28,28 h 424 a 28.032,28.032 0 0 0 28,-28 V 44 A 28.032,28.032 0 0 0 468,16 Z m 12,452 a 12.013,12.013 0 0 1 -12,12 H 44 A 12.013,12.013 0 0 1 32,468 V 128 h 448 z m 0,-356 H 32 V 44 A 12.013,12.013 0 0 1 44,32 h 424 a 12.013,12.013 0 0 1 12,12 z"
         id="path2-4" /><path
         d="m 256,48 a 24,24 0 1 0 24,24 24.027,24.027 0 0 0 -24,-24 z m 0,32 a 8,8 0 1 1 8,-8 8.009,8.009 0 0 1 -8,8 z"
         id="path3" /><path
         d="m 176,48 a 24,24 0 1 0 24,24 24.027,24.027 0 0 0 -24,-24 z m 0,32 a 8,8 0 1 1 8,-8 8.009,8.009 0 0 1 -8,8 z"
         id="path4" /><path
         d="m 336,48 a 24,24 0 1 0 24,24 24.027,24.027 0 0 0 -24,-24 z m 0,32 a 8,8 0 1 1 8,-8 8.009,8.009 0 0 1 -8,8 z"
         id="path5" /><path
         d="m 252,264 a 8,8 0 0 0 16,0 28.635,28.635 0 0 0 -5.236,-16.939 c -1.782,-2.822 -2.764,-4.377 -2.764,-8.4 0,-4.023 0.981,-5.572 2.764,-8.394 a 28.632,28.632 0 0 0 5.236,-16.933 8,8 0 0 0 -16,0 c 0,4.018 -0.981,5.572 -2.764,8.394 a 30.014,30.014 0 0 0 0,33.876 c 1.782,2.822 2.764,4.377 2.764,8.396 z"
         id="path6" /><path
         d="m 296,264 a 8,8 0 0 0 16,0 28.635,28.635 0 0 0 -5.236,-16.939 c -1.782,-2.822 -2.764,-4.377 -2.764,-8.4 0,-4.023 0.981,-5.572 2.764,-8.394 a 28.632,28.632 0 0 0 5.236,-16.933 8,8 0 0 0 -16,0 c 0,4.018 -0.981,5.572 -2.764,8.394 a 30.014,30.014 0 0 0 0,33.876 c 1.782,2.822 2.764,4.377 2.764,8.396 z"
         id="path7" /><path
         d="m 208,264 a 8,8 0 0 0 16,0 28.635,28.635 0 0 0 -5.236,-16.939 c -1.782,-2.822 -2.764,-4.377 -2.764,-8.4 0,-4.023 0.981,-5.572 2.764,-8.394 a 28.632,28.632 0 0 0 5.236,-16.933 8,8 0 0 0 -16,0 c 0,4.018 -0.981,5.572 -2.764,8.394 a 30.014,30.014 0 0 0 0,33.876 c 1.782,2.822 2.764,4.377 2.764,8.396 z"
         id="path8" /></g></g></svg>
