<?xml version="1.0" encoding="UTF-8" standalone="no"?>
<!-- Created with Inkscape (http://www.inkscape.org/) -->

<svg
   width="50"
   height="50"
   viewBox="0 0 13.229166 13.229167"
   version="1.1"
   id="svg1"
   xml:space="preserve"
   xmlns="http://www.w3.org/2000/svg"
   xmlns:svg="http://www.w3.org/2000/svg"><defs
     id="defs1" /><g
     id="layer1"
     style="display:inline"><rect
       style="display:none;fill:#ffaaaa;stroke-width:3.40157;stroke-linejoin:bevel;stroke-miterlimit:2.9;stroke-dasharray:3.40157, 3.40157;paint-order:markers fill stroke"
       id="rect1"
       width="50"
       height="50"
       x="0"
       y="0"
       transform="scale(0.26458333)" /><rect
       style="display:none;fill:#ffe6d5;stroke-width:3.40157;stroke-linejoin:bevel;stroke-miterlimit:2.9;stroke-dasharray:3.40157, 3.40157;paint-order:markers fill stroke"
       id="rect2"
       width="41.574802"
       height="41.574802"
       x="3.7795274"
       y="3.7795274"
       transform="matrix(0.25456124,0,0,0.25456124,0.36079552,0.36079552)" /><g
       id="g22"
       transform="matrix(0.02414986,0,0,0.02414986,0.67058135,0.64326313)"><path
         d="M 461.686,390.853 H 439.7 c -2.681,0 -4.857,-2.173 -4.857,-4.854 v -45.467 c 0,-2.682 2.176,-4.855 4.857,-4.855 h 21.986 c 2.682,0 4.858,2.173 4.858,4.855 v 45.467 c 0,2.681 -2.176,4.854 -4.858,4.854 z m -17.128,-9.709 h 12.27 v -35.758 h -12.27 z"
         id="path1" /><path
         d="m 448.789,162.94 c -14.447,0 -26.206,-11.756 -26.206,-26.206 0,-14.451 11.759,-26.208 26.206,-26.208 14.451,0 26.211,11.757 26.211,26.208 0,14.45 -11.76,26.206 -26.211,26.206 z m 0,-42.703 c -9.093,0 -16.491,7.402 -16.491,16.498 0,9.096 7.397,16.496 16.491,16.496 9.099,0 16.496,-7.4 16.496,-16.496 0,-9.096 -7.397,-16.498 -16.496,-16.498 z"
         id="path2" /><path
         d="M 242.153,153.85 H 222.86 c -2.682,0 -4.858,-2.173 -4.858,-4.855 v -24.522 c 0,-2.681 2.176,-4.854 4.858,-4.854 h 19.293 c 2.681,0 4.857,2.173 4.857,4.854 v 24.522 c 0,2.682 -2.176,4.855 -4.857,4.855 z m -14.436,-9.711 h 9.578 v -14.812 h -9.578 z"
         id="path3-5" /><path
         d="M 115.65,153.85 H 96.352 c -2.681,0 -4.858,-2.173 -4.858,-4.855 v -24.522 c 0,-2.681 2.176,-4.854 4.858,-4.854 h 19.299 c 2.681,0 4.857,2.173 4.857,4.854 v 24.522 c 0,2.682 -2.176,4.855 -4.858,4.855 z m -14.441,-9.711 h 9.583 v -14.812 h -9.583 z"
         id="path4-7" /><path
         d="m 178.904,153.85 h -19.299 c -2.681,0 -4.858,-2.173 -4.858,-4.855 v -24.522 c 0,-2.681 2.176,-4.854 4.858,-4.854 h 19.299 c 2.681,0 4.857,2.173 4.857,4.854 v 24.522 c 0,2.682 -2.175,4.855 -4.857,4.855 z m -14.441,-9.711 h 9.583 v -14.812 h -9.583 z"
         id="path5-1" /><path
         d="m 431.35,153.85 h -18.735 c -2.681,0 -4.858,-2.173 -4.858,-4.855 v -24.522 c 0,-2.681 2.176,-4.854 4.858,-4.854 h 18.735 c 1.812,0 3.472,1.009 4.31,2.618 0.832,1.607 0.706,3.548 -0.337,5.031 -1.982,2.81 -3.025,6.085 -3.025,9.467 0,3.38 1.043,6.654 3.025,9.465 1.043,1.483 1.169,3.424 0.337,5.031 -0.838,1.61 -2.498,2.619 -4.31,2.619 z m -13.877,-9.711 h 6.185 c -0.706,-2.389 -1.074,-4.876 -1.074,-7.405 0,-2.529 0.368,-5.018 1.08,-7.408 h -6.19 v 14.813 z"
         id="path6-9" /><path
         d="M 52.397,153.85 H 29.858 C 27.177,153.85 25,151.677 25,148.995 v -24.522 c 0,-2.681 2.176,-4.854 4.858,-4.854 h 22.539 c 2.681,0 4.857,2.173 4.857,4.854 v 24.522 c 0,2.682 -2.176,4.855 -4.857,4.855 z M 34.716,144.139 H 47.539 V 129.327 H 34.716 Z"
         id="path7-8" /><path
         d="m 305.407,153.85 h -19.299 c -2.681,0 -4.857,-2.173 -4.857,-4.855 v -24.522 c 0,-2.681 2.176,-4.854 4.857,-4.854 h 19.299 c 2.681,0 4.857,2.173 4.857,4.854 v 24.522 c 0,2.682 -2.176,4.855 -4.857,4.855 z m -14.442,-9.711 h 9.583 v -14.812 h -9.583 z"
         id="path8-5" /><path
         d="m 368.66,153.85 h -19.299 c -2.681,0 -4.858,-2.173 -4.858,-4.855 v -24.522 c 0,-2.681 2.176,-4.854 4.858,-4.854 h 19.299 c 2.681,0 4.857,2.173 4.857,4.854 v 24.522 c 10e-4,2.682 -2.175,4.855 -4.857,4.855 z m -14.441,-9.711 h 9.583 v -14.812 h -9.583 z"
         id="path9" /><path
         d="M 242.153,380.382 H 222.86 c -2.682,0 -4.858,-2.173 -4.858,-4.855 v -24.522 c 0,-2.682 2.176,-4.855 4.858,-4.855 h 19.293 c 2.681,0 4.857,2.173 4.857,4.855 v 24.522 c 0,2.682 -2.176,4.855 -4.857,4.855 z m -14.436,-9.709 h 9.578 V 355.86 h -9.578 z"
         id="path10" /><path
         d="M 115.65,380.382 H 96.352 c -2.681,0 -4.858,-2.173 -4.858,-4.855 v -24.522 c 0,-2.682 2.176,-4.855 4.858,-4.855 h 19.299 c 2.681,0 4.857,2.173 4.857,4.855 v 24.522 c 0,2.682 -2.176,4.855 -4.858,4.855 z m -14.441,-9.709 h 9.583 V 355.86 h -9.583 z"
         id="path11" /><path
         d="m 178.904,380.382 h -19.299 c -2.681,0 -4.858,-2.173 -4.858,-4.855 v -24.522 c 0,-2.682 2.176,-4.855 4.858,-4.855 h 19.299 c 2.681,0 4.857,2.173 4.857,4.855 v 24.522 c 0,2.682 -2.175,4.855 -4.857,4.855 z m -14.441,-9.709 h 9.583 V 355.86 h -9.583 z"
         id="path12" /><path
         d="M 52.397,380.382 H 29.858 c -2.681,0 -4.858,-2.173 -4.858,-4.855 v -24.522 c 0,-2.682 2.176,-4.855 4.858,-4.855 h 22.539 c 2.681,0 4.857,2.173 4.857,4.855 v 24.522 c 0,2.682 -2.176,4.855 -4.857,4.855 z M 34.716,370.673 H 47.539 V 355.86 H 34.716 Z"
         id="path13" /><path
         d="m 305.407,380.382 h -19.299 c -2.681,0 -4.857,-2.173 -4.857,-4.855 v -24.522 c 0,-2.682 2.176,-4.855 4.857,-4.855 h 19.299 c 2.681,0 4.857,2.173 4.857,4.855 v 24.522 c 0,2.682 -2.176,4.855 -4.857,4.855 z m -14.442,-9.709 h 9.583 V 355.86 h -9.583 z"
         id="path14" /><path
         d="m 439.701,380.382 h -27.085 c -2.681,0 -4.858,-2.173 -4.858,-4.855 v -24.522 c 0,-2.682 2.176,-4.855 4.858,-4.855 h 27.085 c 2.682,0 4.858,2.173 4.858,4.855 v 24.522 c -0.001,2.682 -2.176,4.855 -4.858,4.855 z m -22.228,-9.709 h 17.37 V 355.86 h -17.37 z"
         id="path15" /><path
         d="m 368.66,380.382 h -19.299 c -2.681,0 -4.858,-2.173 -4.858,-4.855 v -24.522 c 0,-2.682 2.176,-4.855 4.858,-4.855 h 19.299 c 2.681,0 4.857,2.173 4.857,4.855 v 24.522 c 10e-4,2.682 -2.175,4.855 -4.857,4.855 z m -14.441,-9.709 h 9.583 V 355.86 h -9.583 z"
         id="path16" /><path
         d="m 74.377,409.233 c -14.799,0 -26.838,-12.036 -26.838,-26.833 V 117.6 c 0,-14.797 12.039,-26.833 26.838,-26.833 14.794,0 26.833,12.035 26.833,26.833 v 264.8 c -10e-4,14.797 -12.039,26.833 -26.833,26.833 z m 0,-308.756 c -9.441,0 -17.123,7.682 -17.123,17.123 v 264.8 c 0,9.441 7.682,17.123 17.123,17.123 9.441,0 17.117,-7.682 17.117,-17.123 V 117.6 c 0,-9.441 -7.676,-17.123 -17.117,-17.123 z"
         id="path17" /><path
         d="m 137.625,409.233 c -14.794,0 -26.833,-12.036 -26.833,-26.833 V 117.6 c 0,-14.797 12.039,-26.833 26.833,-26.833 14.799,0 26.838,12.035 26.838,26.833 v 264.8 c 0,14.797 -12.039,26.833 -26.838,26.833 z m 0,-308.756 c -9.441,0 -17.118,7.682 -17.118,17.123 v 264.8 c 0,9.441 7.676,17.123 17.118,17.123 9.442,0 17.122,-7.682 17.122,-17.123 V 117.6 c 10e-4,-9.441 -7.681,-17.123 -17.122,-17.123 z"
         id="path18" /><path
         d="m 200.879,409.233 c -14.794,0 -26.833,-12.036 -26.833,-26.833 V 117.6 c 0,-14.797 12.039,-26.833 26.833,-26.833 14.799,0 26.838,12.035 26.838,26.833 v 264.8 c 0,14.797 -12.039,26.833 -26.838,26.833 z m 0,-308.756 c -9.441,0 -17.118,7.682 -17.118,17.123 v 264.8 c 0,9.441 7.676,17.123 17.118,17.123 9.441,0 17.122,-7.682 17.122,-17.123 V 117.6 c 0.001,-9.441 -7.681,-17.123 -17.122,-17.123 z"
         id="path19" /><path
         d="m 264.133,409.233 c -14.799,0 -26.838,-12.036 -26.838,-26.833 V 117.6 c 0,-14.797 12.039,-26.833 26.838,-26.833 14.794,0 26.832,12.035 26.832,26.833 v 264.8 c 0,14.797 -12.038,26.833 -26.832,26.833 z m 0,-308.756 c -9.441,0 -17.123,7.682 -17.123,17.123 v 264.8 c 0,9.441 7.682,17.123 17.123,17.123 9.441,0 17.118,-7.682 17.118,-17.123 V 117.6 c 0,-9.441 -7.677,-17.123 -17.118,-17.123 z"
         id="path20" /><path
         d="m 327.387,409.233 c -14.799,0 -26.838,-12.036 -26.838,-26.833 V 117.6 c 0,-14.797 12.039,-26.833 26.832,-26.833 14.799,0 26.838,12.035 26.838,26.833 v 264.8 c 0,14.797 -12.039,26.833 -26.832,26.833 z m 0,-308.756 c -9.441,0 -17.123,7.682 -17.123,17.123 v 264.8 c 0,9.441 7.676,17.123 17.118,17.123 9.441,0 17.123,-7.682 17.123,-17.123 V 117.6 c -10e-4,-9.441 -7.677,-17.123 -17.118,-17.123 z"
         id="path21" /><path
         d="m 390.635,409.233 c -14.794,0 -26.833,-12.036 -26.833,-26.833 V 117.6 c 0,-14.797 12.039,-26.833 26.833,-26.833 14.799,0 26.838,12.035 26.838,26.833 v 264.8 c 0,14.797 -12.039,26.833 -26.838,26.833 z m 0,-308.756 c -9.441,0 -17.118,7.682 -17.118,17.123 v 264.8 c 0,9.441 7.676,17.123 17.118,17.123 9.442,0 17.122,-7.682 17.122,-17.123 V 117.6 c 10e-4,-9.441 -7.681,-17.123 -17.122,-17.123 z"
         id="path22" /></g></g></svg>
