<?xml version="1.0" encoding="UTF-8" standalone="no"?>
<!-- Created with Inkscape (http://www.inkscape.org/) -->

<svg
   width="50"
   height="50"
   viewBox="0 0 13.229166 13.229167"
   version="1.1"
   id="svg1"
   xml:space="preserve"
   xmlns="http://www.w3.org/2000/svg"
   xmlns:svg="http://www.w3.org/2000/svg"><defs
     id="defs1" /><g
     id="layer1"
     style="display:inline"><rect
       style="display:none;fill:#ffaaaa;stroke-width:3.40157;stroke-linejoin:bevel;stroke-miterlimit:2.9;stroke-dasharray:3.40157, 3.40157;paint-order:markers fill stroke"
       id="rect1"
       width="50"
       height="50"
       x="0"
       y="0"
       transform="scale(0.26458333)" /><rect
       style="display:none;fill:#ffe6d5;stroke-width:3.40157;stroke-linejoin:bevel;stroke-miterlimit:2.9;stroke-dasharray:3.40157, 3.40157;paint-order:markers fill stroke"
       id="rect2"
       width="41.574802"
       height="41.574802"
       x="3.7795274"
       y="3.7795274"
       transform="matrix(0.25456124,0,0,0.25456124,0.36079552,0.36079552)" /><g
       id="g22"
       transform="matrix(0.0828952,0,0,0.0828952,1.3092905,1.3092905)"
       style="display:inline"><path
         d="M 64,25 A 39,39 0 1 0 103,64 39.05,39.05 0 0 0 64,25 Z m 0,74 A 35,35 0 1 1 99,64 35,35 0 0 1 64,99 Z"
         id="path1" /><path
         d="M 103.81,0 H 24.19 A 24.22,24.22 0 0 0 0,24.19 v 79.62 A 24.22,24.22 0 0 0 24.19,128 h 79.62 A 24.22,24.22 0 0 0 128,103.81 V 24.19 A 24.22,24.22 0 0 0 103.81,0 Z M 124,103.81 A 20.22,20.22 0 0 1 103.81,124 H 24.19 A 20.22,20.22 0 0 1 4,103.81 V 24.19 A 20.22,20.22 0 0 1 24.19,4 h 79.62 A 20.22,20.22 0 0 1 124,24.19 Z"
         id="path2" /><path
         d="m 49,57 a 7,7 0 1 0 7,7 7,7 0 0 0 -7,-7 z m 0,10 a 3,3 0 1 1 3,-3 3,3 0 0 1 -3,3 z"
         id="path3" /><path
         d="m 79,57 a 7,7 0 1 0 7,7 7,7 0 0 0 -7,-7 z m 0,10 a 3,3 0 1 1 3,-3 3,3 0 0 1 -3,3 z"
         id="path4-9" /></g></g></svg>
